# xmcd
# 
# Track frame offsets:
#     150
#     4497
#     16645
#     39860
#     48627
#     56107
#     62632
#     76662
#     82002
#     94802
#     104327
#     111680
#     122037
#     133172
#     151407
#     158002
#     168757
#     175452
#     188595
#     197232
#     204687
#     217380
#     223742
#     230377
#     238875
#     245480
#     252847
#     269230
#     294045
# 
# Disc length: 4164
# 
# Revision: 2
# Processed by: cddbd v1.5.2PL0 Copyright (c) Steve Scherf et al.
# Submitted via: fre:ac v1.0.31
# 
DISCID=ad10421d
DTITLE=Various Artist - 映画「伝説巨神イデオン」 発動編＆接触編
DYEAR=1987
DGENRE=Soundtrack
TTITLE0=前兆
TTITLE1=接触
TTITLE2=甦える巨神
TTITLE3=圧倒する力
TTITLE4=ソロシップ
TTITLE5=マヤヤ
TTITLE6=カララ
TTITLE7=伝説の英雄
TTITLE8=イデの意志
TTITLE9=イデの示し
TTITLE10=子供たち
TTITLE11=増大するイデ
TTITLE12=逃亡は続く
TTITLE13=水原明子 - セーリング・フライ
TTITLE14=イントロダクション
TTITLE15=愛の哀しさ
TTITLE16=救出
TTITLE17=狂気
TTITLE18=昇天
TTITLE19=加護
TTITLE20=超兵器
TTITLE21=エレジー
TTITLE22=懐疑
TTITLE23=怨念
TTITLE24=死
TTITLE25=コスモスへ
TTITLE26=飛翔
TTITLE27=カンタータ・オルビス
TTITLE28=水原明子 - 海に陽に
EXTD=
EXTT0=
EXTT1=
EXTT2=
EXTT3=
EXTT4=
EXTT5=
EXTT6=
EXTT7=
EXTT8=
EXTT9=
EXTT10=
EXTT11=
EXTT12=
EXTT13=
EXTT14=
EXTT15=
EXTT16=
EXTT17=
EXTT18=
EXTT19=
EXTT20=
EXTT21=
EXTT22=
EXTT23=
EXTT24=
EXTT25=
EXTT26=
EXTT27=
EXTT28=
PLAYORDER=
